<svg width="831" height="565" viewBox="0 0 831 565" fill="none" xmlns="http://www.w3.org/2000/svg">
<g filter="url(#filter0_d)">
<path d="M10.6323 146.212C10.6323 154.833 16.2698 167.432 36.1667 206.223H10.9639C5.32646 176.715 4.33161 154.501 4.33161 145.881C4.33161 136.598 5.32646 114.384 10.9639 85.5393H36.1667C16.2698 123.667 10.6323 136.266 10.6323 146.212ZM47.11 146.212C47.11 154.833 52.7474 167.432 72.6443 206.223H47.4416C41.8041 176.715 40.8093 154.501 40.8093 145.881C40.8093 136.598 41.8041 114.384 47.4416 85.5393H72.6443C52.7474 123.667 47.11 136.266 47.11 146.212Z" fill="white"/>
<path d="M145.079 32.4917C145.079 25.1976 139.773 22.5452 125.845 22.5452C117.223 22.5452 115.234 29.8393 115.234 41.4435V198.597C115.234 222.468 122.197 226.115 128.83 226.115C137.452 226.115 140.768 213.517 141.431 192.298L142.426 153.175H147.069L148.063 193.292C148.727 224.789 139.11 248.661 119.213 248.661C100.311 248.661 90.3624 238.383 90.3624 209.87V44.7589C90.3624 12.2673 106.612 0 125.845 0C143.089 0 151.38 10.278 151.38 30.8339C151.38 47.7428 150.716 70.9512 144.747 104.437H119.545C142.758 54.7054 145.079 41.775 145.079 32.4917Z" fill="white"/>
<path d="M193.636 135.271H233.43V82.2238C233.43 53.3792 223.813 43.1012 205.574 43.1012C185.677 43.1012 170.423 55.3685 170.423 88.1917V209.87C170.423 238.383 180.703 248.661 200.931 248.661C223.15 248.661 233.761 224.789 233.098 193.292L232.103 153.507H227.461L226.466 192.298C225.803 213.517 221.492 226.115 211.543 226.115C202.258 226.115 193.636 222.468 193.636 198.597V135.271ZM203.253 65.6464C209.885 65.6464 213.533 68.9619 213.533 93.1649V130.63H193.636V84.8762C193.636 72.9405 195.294 65.6464 203.253 65.6464Z" fill="white"/>
<path d="M284.55 146.544L284.219 143.892C300.799 140.908 312.406 128.64 312.406 97.8065V88.1917C312.406 55.3685 298.81 43.1012 280.571 43.1012C263.327 43.1012 255.037 54.3738 255.037 75.2613C255.037 83.8815 256.031 105.764 259.679 122.673H282.561C263.659 96.4804 261.337 84.2131 261.337 75.5928C261.337 69.2934 265.648 65.6464 273.939 65.6464C285.877 65.6464 289.193 72.9405 289.193 84.8762V117.699C289.193 133.945 281.234 142.565 270.291 142.565H264.322V149.196H270.291C282.892 149.196 290.519 157.154 290.519 177.378V198.597C290.519 222.468 283.555 226.115 275.928 226.115C268.301 226.115 264.985 213.517 264.322 192.298L263.327 166.437H258.684L257.689 193.292C256.363 224.789 266.643 248.661 286.54 248.661C304.447 248.661 313.732 238.383 313.732 209.87V193.955C313.732 171.742 311.743 151.186 302.457 144.555L284.55 146.544Z" fill="white"/>
<path d="M353.959 248.661C341.357 248.661 334.725 241.035 334.725 225.121V202.244C334.725 175.389 348.653 164.779 374.851 140.245V78.9083C374.851 68.2988 372.198 65.6464 361.254 65.6464C344.01 65.6464 339.699 72.9405 339.699 84.5446C339.699 98.4696 345.337 110.737 372.529 138.255H340.694C334.062 122.341 332.072 103.443 332.072 88.1917C332.072 67.3042 348.321 43.1012 369.213 43.1012C388.447 43.1012 398.064 53.3792 398.064 70.2881V206.223C398.064 224.126 401.38 226.115 405.028 226.115C408.012 226.115 410.333 224.126 410.665 213.185L411.66 155.164H416.302L417.297 211.859C417.629 232.746 414.313 248.661 398.727 248.661C385.131 248.661 379.162 239.046 383.141 191.966L379.825 191.303C374.851 240.704 366.56 248.661 353.959 248.661ZM363.576 224.458C370.871 224.458 374.851 204.233 374.851 173.731V147.207C360.26 161.132 357.938 169.421 357.938 183.346V216.501C357.938 222.468 360.26 224.458 363.576 224.458Z" fill="white"/>
<path d="M527.748 46.4167H509.841L487.623 187.987H483.975L457.778 46.4167H437.218L433.901 245.345H457.446L448.492 115.379H453.135L478.006 245.345H485.302L506.193 115.379H511.499L507.188 245.345H531.065L527.748 46.4167Z" fill="white"/>
<path d="M579.477 221.805H549.963V245.345H573.176C574.171 254.629 569.196 265.238 549.3 265.57L550.626 284.799C575.166 286.789 579.808 277.505 579.477 245.345V221.805Z" fill="white"/>
<path d="M36.1667 517.214C15.2749 517.214 4 506.936 4 478.423V356.414C4 323.922 20.5808 311.655 40.146 311.655C61.3694 311.655 72.3127 321.933 72.3127 350.446V472.455C72.3127 504.947 55.732 517.214 36.1667 517.214ZM36.1667 334.2C28.8711 334.2 27.2131 341.494 27.2131 353.098V467.151C27.2131 491.022 33.1821 494.669 40.146 494.669C47.4416 494.669 49.0996 487.375 49.0996 475.771V361.718C49.0996 337.847 42.799 334.2 36.1667 334.2Z" fill="white"/>
<path d="M156.204 314.97H85.5695V336.521H109.446V513.899H132.659V336.521H156.204V314.97Z" fill="white"/>
<path d="M245.488 335.526V314.97H215.643L188.119 407.804L184.803 407.14L192.762 341.826V314.97H169.548V513.899H192.762V436.98C192.762 431.012 193.093 425.376 194.088 419.739C205.695 418.413 211 424.713 213.322 447.921L219.954 513.899H245.157L229.902 408.135L197.073 412.445L195.746 411.119C197.736 402.499 200.72 392.221 205.695 377.301C214.648 349.783 223.933 341.494 238.193 337.515L245.488 335.526Z" fill="white"/>
<path d="M330.826 460.851C330.826 500.637 321.209 517.214 299.986 517.214C291.696 517.214 284.4 512.904 277.104 506.273L275.115 508.263L283.405 516.883V557H260.192V314.97H283.074V318.617L275.446 369.012L278.763 369.676C285.726 319.943 297.001 311.655 309.603 311.655C321.872 311.655 330.826 321.933 330.826 338.51V460.851ZM306.95 351.44C306.95 339.505 303.965 334.2 298.328 334.2C291.032 334.2 283.405 356.745 283.405 387.248V489.364C287.716 493.674 292.359 495.995 297.665 495.995C303.965 495.995 306.95 491.354 306.95 462.84V351.44Z" fill="white"/>
<path d="M386.208 517.214C365.317 517.214 354.042 506.936 354.042 478.423V356.414C354.042 323.922 370.622 311.655 390.188 311.655C411.411 311.655 422.354 321.933 422.354 350.446V472.455C422.354 504.947 405.774 517.214 386.208 517.214ZM386.208 334.2C378.913 334.2 377.255 341.494 377.255 353.098V467.151C377.255 491.022 383.224 494.669 390.188 494.669C397.483 494.669 399.141 487.375 399.141 475.771V361.718C399.141 337.847 392.841 334.2 386.208 334.2Z" fill="white"/>
<path d="M481.374 303.034C502.598 303.366 514.536 293.42 514.536 275.185V271.869H491.323L491.986 275.185C494.97 290.104 491.986 298.393 481.374 298.393C470.762 298.393 467.778 290.104 470.762 275.185L471.426 271.869H448.213V275.185C448.213 292.757 460.151 302.703 481.374 303.034ZM518.515 314.97H494.97L467.115 473.118H462.472L467.115 396.531L469.436 314.97H445.56V513.899H469.104L496.628 355.751H501.603L496.96 432.338L494.97 513.899H518.515V314.97Z" fill="white"/>
<path d="M594.799 343.152C594.799 336.852 589.494 334.2 576.892 334.2C566.944 334.2 564.954 341.494 564.954 353.43V467.151C564.954 491.022 571.918 494.669 579.545 494.669C587.172 494.669 590.488 482.07 591.152 460.851L592.147 421.729H596.789L597.784 461.846C598.447 493.343 588.83 517.214 568.933 517.214C551.026 517.214 541.741 506.936 541.741 478.423V356.745C541.741 323.922 557.327 311.655 575.566 311.655C592.81 311.655 601.1 321.933 601.1 342.82C601.1 351.44 600.105 373.654 594.468 403.162H569.265C589.162 364.371 594.799 351.772 594.799 343.152Z" fill="white"/>
<path d="M694.395 314.97H666.208C637.689 314.97 622.767 326.574 622.767 356.745V389.568C622.767 415.761 635.699 427.696 655.265 430.017L654.933 433.664H633.047L617.792 513.899H641.337L650.622 448.915C651.949 438.969 658.581 434.327 671.182 434.327V513.899H694.395V314.97ZM645.98 365.034C645.98 343.483 651.949 337.515 668.529 337.515H671.182V424.713H664.882C648.964 424.713 645.98 411.119 645.98 399.515V365.034Z" fill="white"/>
<path d="M742.693 271.869H714.174L725.781 490.359H712.516V513.899H744.351V490.359H731.087L742.693 271.869Z" fill="white"/>
<path d="M784.222 414.766C784.222 404.82 778.584 392.221 758.687 354.093H783.89C789.527 382.937 790.522 405.151 790.522 414.435C790.522 423.055 789.527 445.268 783.89 474.776H758.687C778.584 435.985 784.222 423.386 784.222 414.766ZM820.699 414.766C820.699 404.82 815.062 392.221 795.165 354.093H820.368C826.005 382.937 827 405.151 827 414.435C827 423.055 826.005 445.268 820.368 474.776H795.165C815.062 435.985 820.699 423.386 820.699 414.766Z" fill="white"/>
</g>
<defs>
<filter id="filter0_d" x="0" y="0" width="831" height="565" filterUnits="userSpaceOnUse" color-interpolation-filters="sRGB">
<feFlood flood-opacity="0" result="BackgroundImageFix"/>
<feColorMatrix in="SourceAlpha" type="matrix" values="0 0 0 0 0 0 0 0 0 0 0 0 0 0 0 0 0 0 127 0"/>
<feOffset dy="4"/>
<feGaussianBlur stdDeviation="2"/>
<feColorMatrix type="matrix" values="0 0 0 0 1 0 0 0 0 1 0 0 0 0 1 0 0 0 0.25 0"/>
<feBlend mode="normal" in2="BackgroundImageFix" result="effect1_dropShadow"/>
<feBlend mode="normal" in="SourceGraphic" in2="effect1_dropShadow" result="shape"/>
</filter>
</defs>
</svg>
